<svg version="1.1" id="Layer_1" xmlns="http://www.w3.org/2000/svg" xmlns:xlink="http://www.w3.org/1999/xlink" x="0px" y="0px" viewBox="0 0 500 500" style="width: 151px;" xml:space="preserve" data-imageid="ecology-76" imageName="Ecology" class="illustrations_image">
<style type="text/css">
	.st0_ecology-76{fill:#68E1FD;}
	.st1_ecology-76{fill:#093F68;}
	.st2_ecology-76{fill:#70CC40;}
	.st3_ecology-76{fill:#725858;}
	.st4_ecology-76{fill:#AD7972;}
	.st5_ecology-76{fill:#FFFFFF;}
	.st6_ecology-76{fill:#DFEAEF;}
	.st7_ecology-76{fill:#FFBC0E;}
</style>
<g id="earth_ecology-76">
	<path class="st0_ecology-76 targetColor" d="M422.2,241.8c0,95.1-77.1,172.2-172.2,172.3c-89,0-163.3-67.8-171.5-156.4c-0.5-5.2-0.7-10.5-0.7-15.9&#10;&#9;&#9;L422.2,241.8z" style="fill: rgb(104, 225, 253);"/>
	<path class="st1_ecology-76" d="M250,415.9c-90,0-165.1-68.5-173.4-158.1c-0.5-5.3-0.7-10.7-0.7-16c0-1,0.9-1.9,1.9-1.9h344.5&#10;&#9;&#9;c1,0,1.9,0.8,1.9,1.9c0,96.1-77.8,174-173.9,174.1C250.1,415.9,250.1,415.9,250,415.9z M79.7,243.6c0,4.6,0.3,9.3,0.7,13.8&#10;&#9;&#9;C88.5,345.1,162,412.1,250,412.1c93.4,0,169.3-75.1,170.3-168.5H79.7z"/>
	<path class="st2_ecology-76" d="M248.6,317.1c4.3,5.3,11.9,6.3,18.6,7.7c8.2,1.7,16.1,4.6,23.5,8.6c3.7,2,7.8,5,8,9.3c0.3,5.6-5.9,9-10.3,12.5&#10;&#9;&#9;c-8.5,6.6-12.6,17.9-12.1,28.6c0.4,9.5,4,18.6,9.2,26.6c50.3-10.6,93.3-43.1,117.2-88.6c-2.7-0.4-5.3-1.2-7.7-2.3&#10;&#9;&#9;c-12.9-6.1-18.1-19.2-28.2-28.4c-14-12.6-34.8-13.2-53.6-12.6c-16.9,0.4-34.4,1.2-49.8,8.3c-5.9,2.7-11.6,6.5-15,12.1&#10;&#9;&#9;S244.5,312.1,248.6,317.1z"/>
	<path class="st1_ecology-76" d="M285.4,412.2c-0.6,0-1.2-0.3-1.6-0.9c-5.9-9.2-9.1-18.4-9.5-27.5c-0.5-12,4.4-23.6,12.8-30.2&#10;&#9;&#9;c0.7-0.6,1.5-1.1,2.3-1.7c3.7-2.7,7.5-5.5,7.3-9.2c-0.1-2.7-2.4-5.2-7-7.7c-7.2-3.9-15-6.7-23-8.4l-2.2-0.4&#10;&#9;&#9;c-6.2-1.2-13.2-2.6-17.5-7.9l0,0c-4.3-5.3-4.6-13.8-0.5-20.5c3.1-5.2,8.3-9.4,15.8-12.8c15.4-7,32.7-8,50.6-8.5&#10;&#9;&#9;c19-0.5,40.4,0,54.9,13.1c3.7,3.6,7.2,7.5,10.2,11.7c5.1,6.6,9.9,12.8,17.5,16.4c2.3,1.1,4.7,1.8,7.2,2.1c1,0.2,1.7,1.1,1.6,2.2&#10;&#9;&#9;c0,0.2-0.1,0.4-0.2,0.6c-24.1,46.1-67.5,79-118.4,89.6C285.6,412.2,285.5,412.2,285.4,412.2z M321,280.1c-2.6,0-5.3,0-7.9,0.1&#10;&#9;&#9;c-18.1,0.5-34.4,1.4-49.1,8.1c-6.8,3.1-11.5,6.8-14.2,11.3c-3.2,5.4-3.1,12.1,0.2,16.2l0,0c3.4,4.2,9.5,5.4,15.3,6.6l2.2,0.5&#10;&#9;&#9;c8.4,1.7,16.5,4.7,24,8.8c5.8,3.2,8.8,6.7,9,10.8c0.3,5.8-4.6,9.3-8.9,12.5c-0.8,0.5-1.5,1.1-2.2,1.6c-7.5,5.9-11.9,16.2-11.4,27.1&#10;&#9;&#9;c0.4,8.1,3.1,16.3,8.2,24.5c48.4-10.5,89.9-41.6,113.4-85.2c-2-0.4-3.8-1.1-5.7-1.9c-8.5-4-13.8-10.8-18.9-17.5&#10;&#9;&#9;c-2.9-4-6.2-7.8-9.8-11.2C353.8,282,337,280.1,321,280.1z"/>
	<path class="st2_ecology-76" d="M181.4,330.6l-22.3,11.5c-3.6,1.9-7.4,3.9-9.8,7.2s-2.7,8.5,0.3,11.2c1.9,1.7,4.7,2.1,6.8,3.7&#10;&#9;&#9;c3,2.4,3.7,6.8,2.6,10.5s-3.4,6.6-5.8,9.5c-42.7-28.9-70.1-75.4-74.9-126.7c14.2-0.9,29.3,2,36.7,12.4&#10;&#9;&#9;c10.5,14.8,12.2,36.7,36.3,36.1c8.6-0.2,16.5-4.6,25.1-6s19.2,1.9,20.9,10.3C199.3,319.5,189.7,326.3,181.4,330.6z"/>
	<path class="st1_ecology-76" d="M153.4,386.2c-0.4,0-0.7-0.1-1.1-0.3c-43.1-29.2-70.9-76.2-75.7-128.1c0-0.5,0.1-1,0.4-1.4&#10;&#9;&#9;c0.3-0.4,0.8-0.6,1.3-0.6c10.4-0.6,29.2,0.2,38.4,13.2c2.8,4.2,5.3,8.6,7.3,13.2c5.8,11.8,10.8,22.1,26.4,22.1h1&#10;&#9;&#9;c4.8-0.1,9.3-1.6,14.1-3.1c3.5-1.2,7-2.2,10.6-2.9c9.7-1.6,21.2,2.5,23,11.8c1.6,8.1-4.1,15.6-17,22.2L160,343.8&#10;&#9;&#9;c-3.4,1.8-7,3.6-9.1,6.7c-1.8,2.5-2.2,6.7,0.1,8.8c0.9,0.7,1.9,1.3,3,1.7c1.3,0.5,2.5,1.2,3.6,2c3.9,3,4.5,8.5,3.3,12.5&#10;&#9;&#9;c-1.1,3.8-3.4,6.9-6.1,10.2C154.4,386,153.9,386.2,153.4,386.2z M80.6,259.4c5.1,49.4,31.6,94.1,72.4,122.4&#10;&#9;&#9;c1.9-2.2,3.4-4.8,4.4-7.5c0.8-2.7,0.5-6.6-2-8.5c-0.9-0.6-1.8-1.1-2.8-1.5c-1.5-0.6-2.9-1.3-4.1-2.3c-3.9-3.6-3.4-9.8-0.6-13.7&#10;&#9;&#9;c2.6-3.8,6.8-5.9,10.4-7.8l22.3-11.5l0,0c11.2-5.8,16.3-11.9,15-18.2c-1.3-6.9-10.8-10.2-18.7-8.8c-3.4,0.7-6.8,1.6-10.1,2.8&#10;&#9;&#9;c-4.9,1.6-9.9,3.2-15.2,3.3c-18.9,0.5-24.9-12.1-30.9-24.2c-2-4.4-4.3-8.6-7-12.6C108,263.1,96,258.9,80.6,259.4z"/>
	<path class="st2_ecology-76" d="M209,371.7c3.1,3,6.5,5.6,10.3,7.7c2.2,1.2,4.6,2.3,6.4,4.1s2.9,4.6,1.8,7c-1,1.9-3,3.1-5.1,3.2&#10;&#9;&#9;c-2.1,0.1-4.2-0.2-6.2-0.8c-10-2.5-21-5.6-26.4-14.4c-2.8-4.6-2.6-11.9,3.1-14.5C199.5,361,204.9,367.6,209,371.7z"/>
	<path class="st1_ecology-76" d="M221.5,395.5c-1.9-0.1-3.8-0.4-5.6-0.9c-10.8-2.7-21.9-6-27.5-15.3c-2-3.3-2.6-7.3-1.5-11&#10;&#9;&#9;c0.8-2.8,2.8-5,5.4-6.2c7-3.2,12.7,2.6,16.9,6.9l1.2,1.2l0,0c2.9,2.9,6.3,5.4,9.9,7.4l1.2,0.6c2.1,1,4,2.2,5.7,3.8&#10;&#9;&#9;c2.2,2.2,3.7,5.8,2.2,9.1c-1.3,2.5-3.8,4.1-6.6,4.3C222.3,395.5,221.9,395.5,221.5,395.5z M196.3,365.1c-0.9,0-1.7,0.2-2.5,0.5&#10;&#9;&#9;c-1.6,0.7-2.9,2.1-3.4,3.9c-0.7,2.7-0.3,5.5,1.1,7.9c4.9,8,15.1,11.1,25.2,13.6c1.8,0.6,3.7,0.8,5.6,0.8c1.5-0.1,2.8-0.9,3.6-2.1&#10;&#9;&#9;c0.7-1.5-0.2-3.6-1.4-4.8c-1.4-1.3-3-2.3-4.7-3.1l-1.2-0.7c-4-2.1-7.6-4.8-10.8-8l0,0l-1.2-1.3C202.8,368,199.6,365.1,196.3,365.1&#10;&#9;&#9;L196.3,365.1z"/>
</g>
<g id="forest_ecology-76">
	<polygon class="st2_ecology-76" points="321,241.8 287,241.8 304,182.1 &#9;"/>
	<path class="st1_ecology-76" d="M321,243.6h-34c-1,0-1.9-0.9-1.9-1.9c0-0.2,0-0.3,0.1-0.5l17-59.7c0.3-1,1.3-1.6,2.3-1.3&#10;&#9;&#9;c0.6,0.2,1.1,0.7,1.3,1.3l17,59.7c0.3,1-0.3,2-1.3,2.3C321.3,243.6,321.2,243.6,321,243.6L321,243.6z M289.5,239.9h29L304,189&#10;&#9;&#9;L289.5,239.9z"/>
	<polygon class="st2_ecology-76" points="393.8,241.8 359.8,241.8 376.8,182.1 &#9;"/>
	<path class="st1_ecology-76" d="M393.8,243.6h-34c-1,0-1.9-0.9-1.9-1.9c0-0.2,0-0.3,0.1-0.5l17-59.7c0.3-1,1.3-1.6,2.3-1.3&#10;&#9;&#9;c0.6,0.2,1.1,0.7,1.3,1.3l17,59.7c0.3,1-0.3,2-1.3,2.3C394.1,243.6,393.9,243.6,393.8,243.6z M362.3,239.9h29L376.8,189&#10;&#9;&#9;L362.3,239.9z"/>
	<path class="st3_ecology-76" d="M233.2,149.8l72.9,92H140.2l72.9-92c4.4-5.5,12.4-6.5,18-2.1C231.9,148.3,232.6,149,233.2,149.8z"/>
	<path class="st1_ecology-76" d="M306.1,243.6H140.2c-1,0-1.9-0.9-1.8-1.9c0-0.4,0.1-0.8,0.4-1.1l72.9-92c5-6.4,14.3-7.4,20.6-2.4&#10;&#9;&#9;c0.9,0.7,1.7,1.5,2.4,2.4l0,0l72.9,92c0.6,0.8,0.4,2-0.4,2.6C306.9,243.5,306.5,243.6,306.1,243.6L306.1,243.6z M144.1,239.9h158.1&#10;&#9;&#9;l-70.5-88.9c-3.7-4.7-10.6-5.5-15.3-1.8c-0.7,0.5-1.3,1.1-1.8,1.8L144.1,239.9z"/>
	<path class="st4_ecology-76" d="M164.6,167.5l58.9,74.3H85.6l58.9-74.3c4.4-5.5,12.4-6.5,17.9-2.1C163.2,166,163.9,166.7,164.6,167.5z"/>
	<path class="st1_ecology-76" d="M223.4,243.6H85.6c-1,0-1.9-0.9-1.8-1.9c0-0.4,0.1-0.8,0.4-1.1l58.9-74.3c5-6.4,14.3-7.4,20.6-2.4&#10;&#9;&#9;c0.9,0.7,1.7,1.5,2.4,2.4l0,0l58.9,74.3c0.6,0.8,0.4,2-0.4,2.6C224.2,243.5,223.8,243.6,223.4,243.6L223.4,243.6z M89.5,239.9h130&#10;&#9;&#9;l-56.5-71.2c-3.7-4.7-10.6-5.5-15.3-1.8c-0.7,0.5-1.3,1.1-1.8,1.8L89.5,239.9z"/>
	<path class="st2_ecology-76" d="M287,241.6c2.5-7.1,1-17.7-8.1-18.5c-3.7-0.3-7.4,1.2-10.4,3.4c-0.1-4.8-4-8.6-8.8-8.5c-1.5,0-3,0.4-4.2,1.2&#10;&#9;&#9;c-1.6,1-2.4,2.5-3.7,3.7c-1.8,1.5-0.9,1.2-3.1,0.6c-3.2-0.9-5.5-2-8.9-0.9c-4,1.4-6.9,4.9-7.5,9.1c-2.8-1.3-6.1-1-8.7,0.8&#10;&#9;&#9;c-2.5,1.7-4.5,4.1-5.7,6.9c-0.4,0.7-0.7,1.5-0.9,2.2L287,241.6z"/>
	<path class="st1_ecology-76" d="M287,243.5h-70c-0.6,0-1.2-0.3-1.5-0.8c-0.4-0.5-0.4-1.1-0.2-1.7c0.3-0.8,0.6-1.6,1-2.4&#10;&#9;&#9;c1.4-3.1,3.6-5.8,6.4-7.7c2.5-1.6,5.4-2.2,8.3-1.6c1.3-3.9,4.3-7.1,8.2-8.4c3.4-1.1,5.9-0.3,8.4,0.4c0.5,0.2,1.1,0.3,1.6,0.5&#10;&#9;&#9;l0.8,0.2c0.1-0.1,0.3-0.3,0.5-0.5c0.4-0.4,0.8-0.8,1.2-1.3c3.5-4.5,10.1-5.3,14.6-1.8c1.7,1.3,2.9,3.1,3.5,5.1&#10;&#9;&#9;c2.8-1.6,6-2.4,9.2-2.2c3.5,0.2,6.7,2.1,8.6,5c3,4.7,2.8,11.4,1.2,16C288.5,243,287.8,243.5,287,243.5z M219.8,239.7h65.8&#10;&#9;&#9;c1.1-4.1,0.6-8.6-1.2-11.4c-1.2-2-3.4-3.2-5.7-3.3c-3.6-0.3-7,1.5-9.2,3.1c-0.8,0.6-2,0.4-2.6-0.4c-0.2-0.3-0.4-0.7-0.4-1.1&#10;&#9;&#9;c0-3.7-3.1-6.7-6.8-6.7c-1.2,0-2.3,0.3-3.3,0.9c-0.7,0.5-1.3,1.1-1.8,1.8c-0.5,0.6-1,1.2-1.6,1.7l-0.6,0.6c-0.8,1-2.1,1.3-3.2,0.8&#10;&#9;&#9;c-0.2-0.1-0.5-0.2-0.9-0.3c-0.6-0.2-1.2-0.3-1.7-0.5c-2.3-0.7-3.9-1.2-6.1-0.4c-3.3,1.2-5.7,4.1-6.2,7.5c-0.1,1-1.1,1.8-2.1,1.6&#10;&#9;&#9;c-0.2,0-0.4-0.1-0.6-0.2c-2.2-0.9-4.8-0.7-6.8,0.7C222.5,235.5,220.9,237.4,219.8,239.7L219.8,239.7z"/>
	<polygon class="st2_ecology-76" points="306.1,241.8 265.3,241.8 285.7,170.2 &#9;"/>
	<path class="st1_ecology-76" d="M306.1,243.6h-40.8c-1,0-1.9-0.9-1.9-1.9c0-0.2,0-0.3,0.1-0.5l20.4-71.5c0.3-1,1.3-1.6,2.3-1.3&#10;&#9;&#9;c0.6,0.2,1.1,0.7,1.3,1.3l20.4,71.5c0.3,1-0.3,2-1.3,2.3C306.4,243.6,306.3,243.6,306.1,243.6L306.1,243.6z M267.8,239.9h35.8&#10;&#9;&#9;l-17.9-62.8L267.8,239.9z"/>
	<polygon class="st2_ecology-76" points="359.1,241.8 318.3,241.8 338.7,170.2 &#9;"/>
	<path class="st1_ecology-76" d="M359.1,243.6h-40.8c-1,0-1.9-0.9-1.9-1.9c0-0.2,0-0.3,0.1-0.5l20.4-71.5c0.3-1,1.3-1.6,2.3-1.3&#10;&#9;&#9;c0.6,0.2,1.1,0.7,1.3,1.3l20.4,71.5c0.3,1-0.3,2-1.3,2.3C359.4,243.6,359.3,243.6,359.1,243.6L359.1,243.6z M320.8,239.9h35.8&#10;&#9;&#9;l-17.9-62.8L320.8,239.9z"/>
	<polygon class="st2_ecology-76" points="341.4,241.8 300.6,241.8 321,182.9 &#9;"/>
	<path class="st1_ecology-76" d="M341.4,243.6h-40.8c-1,0-1.9-0.8-1.9-1.9c0-0.2,0-0.4,0.1-0.6l20.4-58.8c0.3-1,1.4-1.5,2.4-1.2&#10;&#9;&#9;c0.6,0.2,1,0.6,1.2,1.2l20.4,58.8c0.3,1-0.2,2.1-1.2,2.4C341.8,243.6,341.6,243.6,341.4,243.6L341.4,243.6z M303.3,239.9h35.5&#10;&#9;&#9;L321,188.7L303.3,239.9z"/>
	<polygon class="st2_ecology-76" points="376.8,241.8 336,241.8 356.4,170.2 &#9;"/>
	<path class="st1_ecology-76" d="M376.8,243.6H336c-0.6,0-1.2-0.3-1.5-0.8c-0.4-0.5-0.5-1.1-0.3-1.6l20.4-71.5c0.2-0.8,1-1.4,1.8-1.4l0,0&#10;&#9;&#9;c0.8,0,1.6,0.6,1.8,1.4l20.4,71.5c0.3,1-0.3,2-1.3,2.3C377.1,243.6,376.9,243.6,376.8,243.6L376.8,243.6z M338.5,239.9h35.8&#10;&#9;&#9;l-17.9-62.8L338.5,239.9z"/>
	<polygon class="st2_ecology-76" points="412.1,241.8 371.3,241.8 391.7,182.9 &#9;"/>
	<path class="st1_ecology-76" d="M412.1,243.6h-40.8c-1,0-1.9-0.8-1.9-1.9c0-0.2,0-0.4,0.1-0.6l20.4-58.8c0.3-1,1.4-1.5,2.4-1.2&#10;&#9;&#9;c0.6,0.2,1,0.6,1.2,1.2l20.4,58.8c0.3,1-0.2,2.1-1.2,2.4C412.5,243.6,412.3,243.6,412.1,243.6L412.1,243.6z M374,239.9h35.5&#10;&#9;&#9;l-17.8-51.2L374,239.9z"/>
</g>
<g id="clouds_ecology-76">
	<path class="st5_ecology-76" d="M408.5,146.7c0,6.3-5.1,11.4-11.4,11.4h-56.4c-6.3,0-11.4-5.1-11.4-11.4c0-3,1.2-5.9,3.3-8.1&#10;&#9;&#9;c1.9-1.9,4.4-3.1,7.1-3.3c1.6-7.2,7.9-12.3,15.3-12.3c2.8,0,5.5,0.7,7.9,2.1c5.6-9,17.5-11.8,26.5-6.2c5.7,3.5,9.1,9.7,9.1,16.4&#10;&#9;&#9;v0.1C404.3,136.2,408.5,141,408.5,146.7z"/>
	<path class="st6_ecology-76" d="M397.1,160h-56.4c-7.3,0-13.3-6-13.3-13.3c0-6.4,4.5-11.9,10.8-13.1c2.8-9.3,12.5-14.5,21.8-11.8&#10;&#9;&#9;c0.8,0.2,1.5,0.5,2.3,0.9c6.9-9.4,20.2-11.4,29.5-4.4c5,3.7,8.1,9.4,8.5,15.5c5.9,1.5,10,6.8,10,12.9&#10;&#9;&#9;C410.4,154,404.5,160,397.1,160z M355.1,125c-6.5,0-12,4.5-13.4,10.8c-0.2,0.8-0.9,1.4-1.7,1.5c-4.9,0.4-8.7,4.5-8.7,9.5&#10;&#9;&#9;c0,5.3,4.3,9.5,9.5,9.5h56.4c5.2,0.3,9.7-3.7,10-9c0.3-5.2-3.6-9.6-8.8-10c-0.9-0.1-1.7-0.9-1.6-1.9c0-9.6-7.7-17.4-17.3-17.5&#10;&#9;&#9;c-6,0-11.7,3.1-14.9,8.2c-0.5,0.9-1.7,1.2-2.6,0.6C359.9,125.6,357.5,125,355.1,125z"/>
	<path class="st5_ecology-76" d="M177.7,133.6c0,6.3-5.1,11.4-11.4,11.4h-56.4c-6.3,0-11.4-5.1-11.4-11.4c0-3,1.2-5.9,3.3-8.1&#10;&#9;&#9;c1.9-1.9,4.4-3.1,7.1-3.3c1.6-7.2,7.9-12.3,15.3-12.3c2.8,0,5.5,0.7,7.9,2.2c5.6-9,17.4-11.9,26.5-6.3c5.7,3.5,9.2,9.7,9.1,16.4&#10;&#9;&#9;v0.1C173.4,123,177.7,127.9,177.7,133.6z"/>
	<path class="st6_ecology-76" d="M166.3,146.9h-56.4c-7.3,0-13.3-6-13.3-13.3c0-6.4,4.5-11.9,10.8-13.1c2.8-9.3,12.5-14.5,21.8-11.8&#10;&#9;&#9;c0.8,0.2,1.5,0.5,2.2,0.8c6.9-9.4,20.2-11.4,29.6-4.4c5,3.7,8.1,9.4,8.5,15.5c5.9,1.5,10,6.8,10,12.9&#10;&#9;&#9;C179.5,140.9,173.6,146.9,166.3,146.9L166.3,146.9z M124.2,111.8c-6.5,0-12,4.5-13.4,10.8c-0.2,0.8-0.9,1.4-1.7,1.5&#10;&#9;&#9;c-4.9,0.4-8.7,4.5-8.7,9.5c0,5.3,4.3,9.5,9.5,9.5h56.4c5.2,0.3,9.7-3.7,10-9c0.3-5.2-3.6-9.6-8.8-10c-0.9-0.1-1.7-0.9-1.6-1.9&#10;&#9;&#9;c0-9.6-7.7-17.4-17.3-17.4c-6,0-11.7,3.1-14.8,8.2c-0.5,0.9-1.7,1.2-2.6,0.6C129,112.5,126.7,111.8,124.2,111.8z"/>
</g>
<g id="sun_ecology-76">
	<circle class="st7_ecology-76" cx="288.1" cy="107.6" r="21.6"/>
	<path class="st1_ecology-76" d="M288.1,131.1c-13,0-23.5-10.5-23.5-23.5c0-13,10.5-23.5,23.5-23.5c13,0,23.5,10.5,23.5,23.5c0,0,0,0,0,0&#10;&#9;&#9;C311.6,120.6,301.1,131.1,288.1,131.1z M288.1,87.9c-10.9,0-19.7,8.8-19.7,19.7s8.8,19.7,19.7,19.7s19.7-8.8,19.7-19.7&#10;&#9;&#9;C307.8,96.7,299,87.9,288.1,87.9z"/>
</g>
</svg>